# xmcd CD database file
#
# Track frame offsets:
#	150
#	26261
#	51514
#	71062
#	90547
#	110228
#	135586
#	157684
#	177065
#	200137
#	223356
#	242841
#	268186
#	287706
#	316769
#
# Disc length: 4408 seconds
#
# Revision: 0
# Processed by: cddbd v1.5.2PL0 Copyright (c) Steve Scherf et al.
# Submitted via: CDex 1.51
#
DISCID=e211360f
DTITLE=Blue Stone - Messages
DYEAR=2009
DGENRE=New Age
TTITLE0=Midnight Tides
TTITLE1=Open Your Eyes
TTITLE2=Deja Vu
TTITLE3=Hang On
TTITLE4=Wait For The Sun
TTITLE5=Open Sky
TTITLE6=Lotus Bloom
TTITLE7=Come Alive
TTITLE8=Moving Forward
TTITLE9=Ancient Echoes
TTITLE10=Set Me In The Sun
TTITLE11=Bridges
TTITLE12=The Silence
TTITLE13=Hypnotized
TTITLE14=Messages
EXTD=YEAR: 2009
EXTT0=
EXTT1=
EXTT2=
EXTT3=
EXTT4=
EXTT5=
EXTT6=
EXTT7=
EXTT8=
EXTT9=
EXTT10=
EXTT11=
EXTT12=
EXTT13=
EXTT14=
PLAYORDER=
